<svg id="Layer_1" height="512" viewBox="0 0 24 24" width="512" xmlns="http://www.w3.org/2000/svg" data-name="Layer 1"><path d="m19 2.5h-14a2.50263 2.50263 0 0 0 -2.5 2.5v14a2.50263 2.50263 0 0 0 2.5 2.5h14a2.50263 2.50263 0 0 0 2.5-2.5v-14a2.50263 2.50263 0 0 0 -2.5-2.5zm-10.5 18h-3.5a1.50164 1.50164 0 0 1 -1.5-1.5v-14a1.50164 1.50164 0 0 1 1.5-1.5h3.5zm12-1.5a1.50164 1.50164 0 0 1 -1.5 1.5h-9.5v-17h9.5a1.50164 1.50164 0 0 1 1.5 1.5zm-15.5-13.5h2a.5.5 0 0 1 0 1h-2a.5.5 0 0 1 0-1zm2.5 3.5a.49971.49971 0 0 1 -.5.5h-2a.5.5 0 0 1 0-1h2a.49971.49971 0 0 1 .5.5zm0 3a.49971.49971 0 0 1 -.5.5h-2a.5.5 0 0 1 0-1h2a.49971.49971 0 0 1 .5.5z"/></svg>